<svg width="74" height="74" viewBox="0 0 74 74" fill="none" xmlns="http://www.w3.org/2000/svg">
<rect width="74" height="74" rx="37" fill="#0F1628"/>
<path d="M31.66 43.88L31.705 42.665C31.705 41.735 31.63 40.7 31.48 39.56C31.36 38.42 31.3 37.625 31.3 37.175C31.3 36.695 31.495 36.23 31.885 35.78C32.305 35.3 32.83 35.06 33.46 35.06C34.09 35.06 34.6 35.3 34.99 35.78C35.41 36.23 35.62 36.695 35.62 37.175C35.62 37.625 35.545 38.42 35.395 39.56C35.275 40.7 35.215 41.735 35.215 42.665C35.215 43.595 35.275 44.63 35.395 45.77C35.545 46.91 35.62 47.72 35.62 48.2C35.62 48.65 35.41 49.115 34.99 49.595C34.6 50.045 34.09 50.27 33.46 50.27C32.83 50.27 32.305 50.045 31.885 49.595C31.495 49.115 31.3 48.575 31.3 47.975V47.03C28.57 49.19 25.675 50.27 22.615 50.27C18.715 50.27 15.43 48.875 12.76 46.085C10.12 43.265 8.8 39.86 8.8 35.87C8.8 30.89 10.285 26.78 13.255 23.54C16.255 20.3 20.065 18.68 24.685 18.68C27.355 18.68 29.8 19.205 32.02 20.255C34.27 21.305 35.395 22.52 35.395 23.9C35.395 24.53 35.185 25.055 34.765 25.475C34.375 25.895 33.895 26.105 33.325 26.105C32.755 26.105 32.185 25.88 31.615 25.43C31.045 24.98 30.49 24.485 29.95 23.945C29.44 23.375 28.615 22.865 27.475 22.415C26.365 21.965 25.045 21.74 23.515 21.74C20.065 21.74 17.365 22.835 15.415 25.025C13.465 27.215 12.49 30.11 12.49 33.71C12.49 37.31 13.555 40.46 15.685 43.16C17.845 45.86 20.65 47.21 24.1 47.21C26.71 47.21 29.23 46.1 31.66 43.88ZM49.4983 21.785C48.6283 21.785 48.0133 21.8 47.6533 21.83C47.7733 22.07 47.8333 22.325 47.8333 22.595C47.8333 22.865 47.7733 23.93 47.6533 25.79C47.5333 27.65 47.4583 29.735 47.4283 32.045C49.5283 30.605 51.6733 29.885 53.8633 29.885C54.7633 29.135 55.2133 28.055 55.2133 26.645C55.2133 25.235 54.7033 24.08 53.6833 23.18C52.6933 22.25 51.2983 21.785 49.4983 21.785ZM45.9433 18.95L50.3533 18.68C52.7233 18.68 54.6583 19.37 56.1583 20.75C57.6583 22.1 58.4083 23.66 58.4083 25.43C58.4083 26.21 58.1833 27.05 57.7333 27.95C57.2833 28.82 56.6983 29.57 55.9783 30.2C58.4683 30.89 60.3583 32.12 61.6483 33.89C62.9683 35.66 63.6283 37.58 63.6283 39.65C63.6283 42.44 62.5333 44.915 60.3433 47.075C58.1533 49.205 55.3483 50.27 51.9283 50.27H42.6583C42.1783 50.27 41.7433 50.12 41.3533 49.82C40.9933 49.49 40.8133 49.07 40.8133 48.56C40.8133 48.05 40.9933 47.645 41.3533 47.345C41.7433 47.015 42.1783 46.85 42.6583 46.85H43.5133C43.7833 44.18 43.9183 41.015 43.9183 37.355C43.9183 33.665 43.8433 30.38 43.6933 27.5C43.5733 24.62 43.5133 23.03 43.5133 22.73C43.5133 22.4 43.5433 22.175 43.6033 22.055H42.6583C42.1783 22.055 41.7433 21.905 41.3533 21.605C40.9933 21.275 40.8133 20.87 40.8133 20.39C40.8133 19.88 40.9933 19.475 41.3533 19.175C41.7433 18.845 42.1783 18.68 42.6583 18.68L45.9433 18.95ZM47.8333 47.03C49.8133 47.45 51.6133 47.66 53.2333 47.66C54.8833 47.66 56.3683 47.03 57.6883 45.77C59.0383 44.48 59.7133 42.665 59.7133 40.325C59.7133 37.985 59.0083 36.185 57.5983 34.925C56.1883 33.665 54.4633 33.035 52.4233 33.035C50.4133 33.035 48.7483 33.44 47.4283 34.25C47.4283 36.02 47.5633 40.28 47.8333 47.03Z" fill="#E6C1C0"/>
</svg>
